<mxfile host="app.diagrams.net" agent="Mozilla/5.0 (Windows NT 10.0; Win64; x64) AppleWebKit/537.36 (KHTML, like Gecko) Chrome/122.0.0.0 Safari/537.36 Avast/122.0.0.0" version="26.0.16">
  <diagram name="PÃ¡gina-1" id="1sTRYYgIjtnhhmSdObvM">
    <mxGraphModel dx="313" dy="618" grid="1" gridSize="10" guides="1" tooltips="1" connect="1" arrows="1" fold="1" page="1" pageScale="1" pageWidth="827" pageHeight="1169" math="0" shadow="0">
      <root>
        <mxCell id="0" />
        <mxCell id="1" parent="0" />
        <mxCell id="6_1M1wy337pFZwj4fq5--5" value="Operacion" style="swimlane;fontStyle=0;childLayout=stackLayout;horizontal=1;startSize=30;fillColor=none;horizontalStack=0;resizeParent=1;resizeParentMax=0;resizeLast=0;collapsible=1;marginBottom=0;whiteSpace=wrap;html=1;" vertex="1" parent="1">
          <mxGeometry x="273" y="140" width="305" height="194" as="geometry" />
        </mxCell>
        <mxCell id="6_1M1wy337pFZwj4fq5--6" value="- numUno: double" style="text;strokeColor=none;fillColor=none;align=left;verticalAlign=top;spacingLeft=4;spacingRight=4;overflow=hidden;rotatable=0;points=[[0,0.5],[1,0.5]];portConstraint=eastwest;whiteSpace=wrap;html=1;" vertex="1" parent="6_1M1wy337pFZwj4fq5--5">
          <mxGeometry y="30" width="305" height="26" as="geometry" />
        </mxCell>
        <mxCell id="6_1M1wy337pFZwj4fq5--7" value="- numDos: double" style="text;strokeColor=none;fillColor=none;align=left;verticalAlign=top;spacingLeft=4;spacingRight=4;overflow=hidden;rotatable=0;points=[[0,0.5],[1,0.5]];portConstraint=eastwest;whiteSpace=wrap;html=1;" vertex="1" parent="6_1M1wy337pFZwj4fq5--5">
          <mxGeometry y="56" width="305" height="26" as="geometry" />
        </mxCell>
        <mxCell id="6_1M1wy337pFZwj4fq5--8" value="" style="line;strokeWidth=1;fillColor=none;align=left;verticalAlign=middle;spacingTop=-1;spacingLeft=3;spacingRight=3;rotatable=0;labelPosition=right;points=[];portConstraint=eastwest;strokeColor=inherit;" vertex="1" parent="6_1M1wy337pFZwj4fq5--5">
          <mxGeometry y="82" width="305" height="8" as="geometry" />
        </mxCell>
        <mxCell id="6_1M1wy337pFZwj4fq5--9" value="+ sumar(): double" style="text;strokeColor=none;fillColor=none;align=left;verticalAlign=top;spacingLeft=4;spacingRight=4;overflow=hidden;rotatable=0;points=[[0,0.5],[1,0.5]];portConstraint=eastwest;whiteSpace=wrap;html=1;" vertex="1" parent="6_1M1wy337pFZwj4fq5--5">
          <mxGeometry y="90" width="305" height="26" as="geometry" />
        </mxCell>
        <mxCell id="6_1M1wy337pFZwj4fq5--10" value="+ restar(): double" style="text;strokeColor=none;fillColor=none;align=left;verticalAlign=top;spacingLeft=4;spacingRight=4;overflow=hidden;rotatable=0;points=[[0,0.5],[1,0.5]];portConstraint=eastwest;whiteSpace=wrap;html=1;" vertex="1" parent="6_1M1wy337pFZwj4fq5--5">
          <mxGeometry y="116" width="305" height="26" as="geometry" />
        </mxCell>
        <mxCell id="6_1M1wy337pFZwj4fq5--11" value="+ multiplicar(): double" style="text;strokeColor=none;fillColor=none;align=left;verticalAlign=top;spacingLeft=4;spacingRight=4;overflow=hidden;rotatable=0;points=[[0,0.5],[1,0.5]];portConstraint=eastwest;whiteSpace=wrap;html=1;" vertex="1" parent="6_1M1wy337pFZwj4fq5--5">
          <mxGeometry y="142" width="305" height="26" as="geometry" />
        </mxCell>
        <mxCell id="6_1M1wy337pFZwj4fq5--12" value="+ dividir(): double" style="text;strokeColor=none;fillColor=none;align=left;verticalAlign=top;spacingLeft=4;spacingRight=4;overflow=hidden;rotatable=0;points=[[0,0.5],[1,0.5]];portConstraint=eastwest;whiteSpace=wrap;html=1;" vertex="1" parent="6_1M1wy337pFZwj4fq5--5">
          <mxGeometry y="168" width="305" height="26" as="geometry" />
        </mxCell>
      </root>
    </mxGraphModel>
  </diagram>
</mxfile>
